<svg width="246" height="76" viewBox="0 0 246 76" fill="none" xmlns="http://www.w3.org/2000/svg">
  <defs>
    <linearGradient id="hc_http_fill" x1="24" y1="16" x2="141" y2="64" gradientUnits="userSpaceOnUse">
      <stop stop-color="#9BE7FF"/>
      <stop offset="0.5" stop-color="#4EC9FF"/>
      <stop offset="1" stop-color="#2B72FF"/>
    </linearGradient>
    <linearGradient id="hc_client_fill" x1="128" y1="16" x2="296" y2="64" gradientUnits="userSpaceOnUse">
      <stop stop-color="#D6FFA5"/>
      <stop offset="0.45" stop-color="#7AE46E"/>
      <stop offset="1" stop-color="#16B46C"/>
    </linearGradient>
    <linearGradient id="hc_splash_fill" x1="8" y1="6" x2="92" y2="70" gradientUnits="userSpaceOnUse">
      <stop stop-color="#B8F1FF"/>
      <stop offset="0.42" stop-color="#4FC7FF"/>
      <stop offset="1" stop-color="#2357F4"/>
    </linearGradient>
    <filter id="hc_shadow" x="0" y="0" width="246" height="76" filterUnits="userSpaceOnUse" color-interpolation-filters="sRGB">
      <feFlood flood-opacity="0" result="BackgroundImageFix"/>
      <feColorMatrix in="SourceAlpha" type="matrix" values="0 0 0 0 0 0 0 0 0 0 0 0 0 0 0 0 0 0 127 0" result="hardAlpha"/>
      <feOffset dy="4"/>
      <feGaussianBlur stdDeviation="3"/>
      <feComposite in2="hardAlpha" operator="out"/>
      <feColorMatrix type="matrix" values="0 0 0 0 0.0196078 0 0 0 0 0.0470588 0 0 0 0 0.109804 0 0 0 0.35 0"/>
      <feBlend mode="normal" in2="BackgroundImageFix" result="effect1_dropShadow_0_1"/>
      <feBlend mode="normal" in="SourceGraphic" in2="effect1_dropShadow_0_1" result="shape"/>
    </filter>
  </defs>
  <g filter="url(#hc_shadow)">
    <g>
      <path d="M25.5 37.5C11.5 34.5 8 18.5 21.5 12C27 3.5 40.5 2.5 50 8C64 4 78 12 79.5 24C89.5 30 90 45.5 79 52.5C77 64.5 60 70.5 47.5 64.5C39 69.5 22.5 67.5 18.5 56.5C6.5 52 7.5 37.5 25.5 37.5Z" fill="url(#hc_splash_fill)" stroke="#0A1630" stroke-width="4" stroke-linejoin="round"/>
      <circle cx="17.5" cy="20.5" r="5.5" fill="#78D9FF" stroke="#0A1630" stroke-width="3"/>
      <circle cx="71.5" cy="13.5" r="4.5" fill="#7AD0FF" stroke="#0A1630" stroke-width="3"/>
      <circle cx="82.5" cy="39.5" r="5" fill="#3D8DFF" stroke="#0A1630" stroke-width="3"/>
      <path d="M28 19C34 12 46 10 57 14" stroke="#EAFBFF" stroke-width="4" stroke-linecap="round" opacity="0.7"/>
    </g>
    <g font-family="Arial Rounded MT Bold, Segoe UI Rounded, Trebuchet MS, Segoe UI, sans-serif" font-weight="900" paint-order="stroke fill markers" stroke-linejoin="round" stroke-linecap="round">
      <text x="25" y="58" fill="url(#hc_http_fill)" stroke="#081325" stroke-width="7" font-size="50" transform="rotate(-6 43 43)">H</text>
      <text x="57" y="58" fill="url(#hc_http_fill)" stroke="#081325" stroke-width="7" font-size="42" letter-spacing="-1.4">ttp</text>
      <text x="111" y="58" fill="url(#hc_client_fill)" stroke="#081325" stroke-width="7" font-size="42" letter-spacing="-1.6">Client</text>
    </g>
  </g>
</svg>
