<?xml version="1.0" encoding="UTF-8"?>
<svg width="256" height="88" viewBox="0 0 256 88" fill="none" xmlns="http://www.w3.org/2000/svg">
  <defs>

      <linearGradient id="hcBadgeFill" x1="20" y1="12" x2="108" y2="116" gradientUnits="userSpaceOnUse">
        <stop stop-color="#0A1C34" />
        <stop offset="1" stop-color="#15355D" />
      </linearGradient>
      <linearGradient id="hcShineFill" x1="24" y1="18" x2="74" y2="64" gradientUnits="userSpaceOnUse">
        <stop stop-color="#8EDFFF" stop-opacity="0.42" />
        <stop offset="1" stop-color="#8EDFFF" stop-opacity="0" />
      </linearGradient>
      <linearGradient id="hcLeftFill" x1="31" y1="28" x2="49" y2="100" gradientUnits="userSpaceOnUse">
        <stop stop-color="#A4F1FF" />
        <stop offset="1" stop-color="#4BA8FF" />
      </linearGradient>
      <linearGradient id="hcRightFill" x1="79" y1="28" x2="97" y2="100" gradientUnits="userSpaceOnUse">
        <stop stop-color="#63F0D1" />
        <stop offset="1" stop-color="#28C873" />
      </linearGradient>
      <linearGradient id="hcBridgeFill" x1="45" y1="57" x2="83" y2="71" gradientUnits="userSpaceOnUse">
        <stop stop-color="#89EFFF" />
        <stop offset="1" stop-color="#3FD9AC" />
      </linearGradient>
      <filter id="hcBadgeShadow" x="0" y="0" width="128" height="128" filterUnits="userSpaceOnUse" color-interpolation-filters="sRGB">
        <feFlood flood-opacity="0" result="BackgroundImageFix" />
        <feColorMatrix in="SourceAlpha" type="matrix" values="0 0 0 0 0 0 0 0 0 0 0 0 0 0 0 0 0 0 127 0" result="hardAlpha" />
        <feOffset dy="5" />
        <feGaussianBlur stdDeviation="4" />
        <feComposite in2="hardAlpha" operator="out" />
        <feColorMatrix type="matrix" values="0 0 0 0 0.0196078 0 0 0 0 0.0588235 0 0 0 0 0.133333 0 0 0 0.34 0" />
        <feBlend mode="normal" in2="BackgroundImageFix" result="effect1_dropShadow_0_1" />
        <feBlend mode="normal" in="SourceGraphic" in2="effect1_dropShadow_0_1" result="shape" />
      </filter>
      <linearGradient id="hcWordHttp" x1="84" y1="16" x2="184" y2="68" gradientUnits="userSpaceOnUse">
      <stop stop-color="#A4F1FF" />
      <stop offset="1" stop-color="#4BA8FF" />
    </linearGradient>
    <linearGradient id="hcWordClient" x1="164" y1="18" x2="324" y2="70" gradientUnits="userSpaceOnUse">
      <stop stop-color="#63F0D1" />
      <stop offset="1" stop-color="#28C873" />
    </linearGradient>
    <filter id="hcWordShadow" x="0" y="0" width="256" height="88" filterUnits="userSpaceOnUse" color-interpolation-filters="sRGB">
      <feFlood flood-opacity="0" result="BackgroundImageFix" />
      <feColorMatrix in="SourceAlpha" type="matrix" values="0 0 0 0 0 0 0 0 0 0 0 0 0 0 0 0 0 0 127 0" result="hardAlpha" />
      <feOffset dy="4" />
      <feGaussianBlur stdDeviation="4" />
      <feComposite in2="hardAlpha" operator="out" />
      <feColorMatrix type="matrix" values="0 0 0 0 0.0196078 0 0 0 0 0.0588235 0 0 0 0 0.133333 0 0 0 0.26 0" />
      <feBlend mode="normal" in2="BackgroundImageFix" result="effect1_dropShadow_0_1" />
      <feBlend mode="normal" in="SourceGraphic" in2="effect1_dropShadow_0_1" result="shape" />
    </filter>
  </defs>
  <g filter="url(#hcWordShadow)">
    <g transform="translate(0 2) scale(0.54)">

    <g filter="url(#hcBadgeShadow)">
      <rect x="12" y="12" width="104" height="104" rx="30" fill="url(#hcBadgeFill)" stroke="#214A7A" stroke-width="4" />
      <path d="M28 22C36 17 47 16 58 19" stroke="#BDEFFF" stroke-opacity="0.7" stroke-width="5" stroke-linecap="round" />
      <path d="M24 20H62C67 20 72 25 72 30V56C72 61 67 66 62 66H32C27 66 22 61 22 56V30C22 25 23 22 24 20Z" fill="url(#hcShineFill)" opacity="0.7" />
      <path d="M31 28C31 23.03 35.03 19 40 19C44.97 19 49 23.03 49 28V100H31V28Z" fill="url(#hcLeftFill)" />
      <path d="M79 28C79 23.03 83.03 19 88 19C92.97 19 97 23.03 97 28V100H79V28Z" fill="url(#hcRightFill)" />
      <rect x="45" y="57" width="38" height="14" rx="7" fill="url(#hcBridgeFill)" />
      <path d="M33 33H44" stroke="#A4F1FF" stroke-width="6" stroke-linecap="round" />
      <path d="M86 95H98" stroke="#63F0D1" stroke-width="6" stroke-linecap="round" />
      <path d="M88 33H97" stroke="#63F0D1" stroke-width="6" stroke-linecap="round" />
      <circle cx="26" cy="33" r="8" fill="#7DE8FF" stroke="#071322" stroke-width="4" />
      <circle cx="102" cy="95" r="9" fill="#48DC96" stroke="#071322" stroke-width="4" />
      <circle cx="102" cy="33" r="7" fill="#7DEBD7" stroke="#071322" stroke-width="4" />
      <rect x="31" y="28" width="18" height="72" rx="9" fill="none" stroke="rgba(255,255,255,0.14)" stroke-width="1.5" />
      <rect x="79" y="28" width="18" height="72" rx="9" fill="none" stroke="rgba(255,255,255,0.14)" stroke-width="1.5" />
      <rect x="45" y="57" width="38" height="14" rx="7" fill="none" stroke="rgba(255,255,255,0.16)" stroke-width="1.5" />
    </g>
      </g>
    <g font-family="Segoe UI, Arial, sans-serif" font-weight="700" paint-order="stroke fill markers" stroke="#071322" stroke-linejoin="round">
      <text x="80" y="54" fill="url(#hcWordHttp)" stroke-width="4.5" font-size="34" letter-spacing="-0.7">Http</text>
      <text x="158" y="54" fill="url(#hcWordClient)" stroke-width="4.5" font-size="34" letter-spacing="-0.8">Client</text>
    </g>
    <path d="M82 66H246" stroke="url(#hcBridgeFill)" stroke-width="4" stroke-linecap="round" opacity="0.9" />
  </g>
</svg>
