<?xml version="1.0" encoding="UTF-8"?>
<svg width="256" height="80" viewBox="0 0 256 80" fill="none" xmlns="http://www.w3.org/2000/svg">
  <defs>
    <linearGradient id="reqloomBadge" x1="12" y1="10" x2="68" y2="72" gradientUnits="userSpaceOnUse">
      <stop stop-color="#0B203A" />
      <stop offset="1" stop-color="#123D63" />
    </linearGradient>
    <linearGradient id="reqloomThread" x1="20" y1="24" x2="62" y2="56" gradientUnits="userSpaceOnUse">
      <stop stop-color="#8FE8FF" />
      <stop offset="0.55" stop-color="#4BA8FF" />
      <stop offset="1" stop-color="#34D399" />
    </linearGradient>
    <linearGradient id="reqloomWord" x1="86" y1="20" x2="244" y2="58" gradientUnits="userSpaceOnUse">
      <stop stop-color="#DDF7FF" />
      <stop offset="0.45" stop-color="#62D8FF" />
      <stop offset="1" stop-color="#4ADE80" />
    </linearGradient>
    <filter id="reqloomShadow" x="0" y="0" width="256" height="80" filterUnits="userSpaceOnUse" color-interpolation-filters="sRGB">
      <feDropShadow dx="0" dy="4" stdDeviation="4" flood-color="#03101F" flood-opacity="0.32" />
    </filter>
  </defs>
  <g filter="url(#reqloomShadow)">
    <rect x="8" y="8" width="64" height="64" rx="18" fill="url(#reqloomBadge)" stroke="#285B88" stroke-width="2" />
    <path d="M22 50C29 36 38 47 45 32C49 23 57 21 62 26" stroke="url(#reqloomThread)" stroke-width="6" stroke-linecap="round" />
    <path d="M22 30H35C39.42 30 43 33.58 43 38V42C43 46.42 46.58 50 51 50H62" stroke="#7CE7D5" stroke-width="4" stroke-linecap="round" opacity="0.9" />
    <circle cx="22" cy="50" r="6" fill="#8FE8FF" stroke="#071322" stroke-width="3" />
    <circle cx="40" cy="40" r="6" fill="#4BA8FF" stroke="#071322" stroke-width="3" />
    <circle cx="62" cy="26" r="6" fill="#34D399" stroke="#071322" stroke-width="3" />
    <circle cx="62" cy="50" r="5" fill="#A7F3D0" stroke="#071322" stroke-width="3" />
    <text x="86" y="51" fill="url(#reqloomWord)" stroke="#071322" stroke-width="1.5" paint-order="stroke fill" font-family="Segoe UI, Arial, sans-serif" font-size="35" font-weight="800">ReqLoom</text>
  </g>
</svg>
